<svg width="107" height="110" viewBox="0 0 107 110" fill="none" xmlns="http://www.w3.org/2000/svg">
<rect width="107" height="110" rx="4" fill="url(#paint0_linear_102_8)"/>
<path d="M0 4C0 1.79086 1.79086 0 4 0H103C105.209 0 107 1.79086 107 4V33H0V4Z" fill="#AA00FF"/>
<path d="M46.375 77.625C48.2083 79.4583 50.4167 80.375 53 80.375C55.5833 80.375 57.7917 79.4583 59.625 77.625C61.4583 75.7917 62.375 73.5833 62.375 71C62.375 68.4167 61.4583 66.2083 59.625 64.375C57.7917 62.5417 55.5833 61.625 53 61.625C50.4167 61.625 48.2083 62.5417 46.375 64.375C44.5417 66.2083 43.625 68.4167 43.625 71C43.625 73.5833 44.5417 75.7917 46.375 77.625ZM72.875 73.625L78.5 78C79.0833 78.4167 79.1667 79 78.75 79.75L73.375 89C73.0417 89.5833 72.5 89.75 71.75 89.5L65.125 86.875C63.375 88.125 61.875 89 60.625 89.5L59.625 96.5C59.4583 97.25 59.0417 97.625 58.375 97.625H47.625C46.9583 97.625 46.5417 97.25 46.375 96.5L45.375 89.5C43.7917 88.8333 42.2917 87.9583 40.875 86.875L34.25 89.5C33.5 89.75 32.9583 89.5833 32.625 89L27.25 79.75C26.8333 79 26.9167 78.4167 27.5 78L33.125 73.625C33.0417 73.0417 33 72.1667 33 71C33 69.8333 33.0417 68.9583 33.125 68.375L27.5 64C26.9167 63.5833 26.8333 63 27.25 62.25L32.625 53C32.9583 52.4167 33.5 52.25 34.25 52.5L40.875 55.125C42.625 53.875 44.125 53 45.375 52.5L46.375 45.5C46.5417 44.75 46.9583 44.375 47.625 44.375H58.375C59.0417 44.375 59.4583 44.75 59.625 45.5L60.625 52.5C62.2083 53.1667 63.7083 54.0417 65.125 55.125L71.75 52.5C72.5 52.25 73.0417 52.4167 73.375 53L78.75 62.25C79.1667 63 79.0833 63.5833 78.5 64L72.875 68.375C72.9583 68.9583 73 69.8333 73 71C73 72.1667 72.9583 73.0417 72.875 73.625Z" fill="#E254FF"/>
<defs>
<linearGradient id="paint0_linear_102_8" x1="57.5" y1="43.5" x2="126" y2="117.5" gradientUnits="userSpaceOnUse">
<stop stop-color="#F2F2F2"/>
<stop offset="1" stop-color="#F2F2F2" stop-opacity="0"/>
</linearGradient>
</defs>
</svg>
